mtllib WheelRearR.mtl
v -0.285019 0.413010 -0.414002 0.000000
v -0.285004 -0.000320 -0.585220 0.000000
v -0.285019 -0.413651 -0.414002 0.000000
v -0.285049 0.413010 0.412643 0.000000
v -0.285019 0.584213 -0.000671 0.000000
v -0.285019 0.413010 -0.414002 0.000000
v -0.285049 -0.413651 0.412643 0.000000
v -0.285034 -0.000320 0.583878 0.000000
v -0.285049 0.413010 0.412643 0.000000
v -0.285019 -0.413651 -0.414002 0.000000
v -0.285019 -0.584869 -0.000671 0.000000
v -0.285049 -0.413651 0.412643 0.000000
v 0.572754 -0.000320 -0.585220 0.000000
v 0.572754 0.413010 -0.414032 0.000000
v 0.572754 -0.413651 -0.414032 0.000000
v 0.572754 0.413010 -0.414032 0.000000
v 0.572739 0.584213 -0.000671 0.000000
v 0.572754 0.413010 0.412659 0.000000
v 0.572754 0.413010 0.412659 0.000000
v 0.572754 -0.000320 0.583878 0.000000
v 0.572754 -0.413651 0.412659 0.000000
v 0.572754 -0.413651 0.412659 0.000000
v 0.572739 -0.584869 -0.000671 0.000000
v 0.572754 -0.413651 -0.414032 0.000000
v 0.572754 0.413010 -0.414032 0.000000
v 0.572754 -0.000320 -0.585220 0.000000
v -0.285004 -0.000320 -0.585220 0.000000
v 0.572754 0.413010 -0.414032 0.000000
v -0.285004 -0.000320 -0.585220 0.000000
v -0.285019 0.413010 -0.414002 0.000000
v 0.572739 0.584213 -0.000671 0.000000
v 0.572754 0.413010 -0.414032 0.000000
v -0.285019 0.413010 -0.414002 0.000000
v 0.572739 0.584213 -0.000671 0.000000
v -0.285019 0.413010 -0.414002 0.000000
v -0.285019 0.584213 -0.000671 0.000000
v 0.572754 0.413010 0.412659 0.000000
v 0.572739 0.584213 -0.000671 0.000000
v -0.285019 0.584213 -0.000671 0.000000
v 0.572754 0.413010 0.412659 0.000000
v -0.285019 0.584213 -0.000671 0.000000
v -0.285049 0.413010 0.412643 0.000000
v 0.572754 -0.000320 0.583878 0.000000
v 0.572754 0.413010 0.412659 0.000000
v -0.285049 0.413010 0.412643 0.000000
v 0.572754 -0.000320 0.583878 0.000000
v -0.285049 0.413010 0.412643 0.000000
v -0.285034 -0.000320 0.583878 0.000000
v 0.572754 -0.413651 0.412659 0.000000
v 0.572754 -0.000320 0.583878 0.000000
v -0.285034 -0.000320 0.583878 0.000000
v 0.572754 -0.413651 0.412659 0.000000
v -0.285034 -0.000320 0.583878 0.000000
v -0.285049 -0.413651 0.412643 0.000000
v 0.572739 -0.584869 -0.000671 0.000000
v 0.572754 -0.413651 0.412659 0.000000
v -0.285049 -0.413651 0.412643 0.000000
v 0.572739 -0.584869 -0.000671 0.000000
v -0.285049 -0.413651 0.412643 0.000000
v -0.285019 -0.584869 -0.000671 0.000000
v 0.572754 -0.413651 -0.414032 0.000000
v 0.572739 -0.584869 -0.000671 0.000000
v -0.285019 -0.584869 -0.000671 0.000000
v 0.572754 -0.413651 -0.414032 0.000000
v -0.285019 -0.584869 -0.000671 0.000000
v -0.285019 -0.413651 -0.414002 0.000000
v 0.572754 -0.000320 -0.585220 0.000000
v 0.572754 -0.413651 -0.414032 0.000000
v -0.285019 -0.413651 -0.414002 0.000000
v 0.572754 -0.000320 -0.585220 0.000000
v -0.285019 -0.413651 -0.414002 0.000000
v -0.285004 -0.000320 -0.585220 0.000000
v -0.285049 -0.413651 0.412643 0.000000
v -0.285049 0.413010 0.412643 0.000000
v -0.285019 0.413010 -0.414002 0.000000
v -0.285049 -0.413651 0.412643 0.000000
v -0.285019 0.413010 -0.414002 0.000000
v -0.285019 -0.413651 -0.414002 0.000000
v 0.572754 0.413010 0.412659 0.000000
v 0.572754 -0.413651 0.412659 0.000000
v 0.572754 -0.413651 -0.414032 0.000000
v 0.572754 0.413010 0.412659 0.000000
v 0.572754 -0.413651 -0.414032 0.000000
v 0.572754 0.413010 -0.414032 0.000000
vn -0.851456 0.370819 -0.370865
vn -0.475983 0.000000 -0.879471
vn -0.851440 -0.370819 -0.370850
vn -0.851486 0.370850 0.370804
vn -0.475952 0.879471 -0.000015
vn -0.851456 0.370819 -0.370865
vn -0.851456 -0.370865 0.370804
vn -0.475998 -0.000015 0.879471
vn -0.851486 0.370850 0.370804
vn -0.851440 -0.370819 -0.370850
vn -0.475967 -0.879456 -0.000015
vn -0.851456 -0.370865 0.370804
vn 0.475937 0.000000 -0.879486
vn 0.851440 0.370850 -0.370834
vn 0.851440 -0.370850 -0.370819
vn 0.851440 0.370850 -0.370834
vn 0.475922 0.879486 0.000000
vn 0.851440 0.370865 0.370819
vn 0.851440 0.370865 0.370819
vn 0.475952 -0.000015 0.879471
vn 0.851456 -0.370880 0.370819
vn 0.851456 -0.370880 0.370819
vn 0.475937 -0.879486 0.000000
vn 0.851440 -0.370850 -0.370819
vn 0.851440 0.370850 -0.370834
vn 0.475937 0.000000 -0.879486
vn -0.475983 0.000000 -0.879471
vn 0.851440 0.370850 -0.370834
vn -0.475983 0.000000 -0.879471
vn -0.851456 0.370819 -0.370865
vn 0.475922 0.879486 0.000000
vn 0.851440 0.370850 -0.370834
vn -0.851456 0.370819 -0.370865
vn 0.475922 0.879486 0.000000
vn -0.851456 0.370819 -0.370865
vn -0.475952 0.879471 -0.000015
vn 0.851440 0.370865 0.370819
vn 0.475922 0.879486 0.000000
vn -0.475952 0.879471 -0.000015
vn 0.851440 0.370865 0.370819
vn -0.475952 0.879471 -0.000015
vn -0.851486 0.370850 0.370804
vn 0.475952 -0.000015 0.879471
vn 0.851440 0.370865 0.370819
vn -0.851486 0.370850 0.370804
vn 0.475952 -0.000015 0.879471
vn -0.851486 0.370850 0.370804
vn -0.475998 -0.000015 0.879471
vn 0.851456 -0.370880 0.370819
vn 0.475952 -0.000015 0.879471
vn -0.475998 -0.000015 0.879471
vn 0.851456 -0.370880 0.370819
vn -0.475998 -0.000015 0.879471
vn -0.851456 -0.370865 0.370804
vn 0.475937 -0.879486 0.000000
vn 0.851456 -0.370880 0.370819
vn -0.851456 -0.370865 0.370804
vn 0.475937 -0.879486 0.000000
vn -0.851456 -0.370865 0.370804
vn -0.475967 -0.879456 -0.000015
vn 0.851440 -0.370850 -0.370819
vn 0.475937 -0.879486 0.000000
vn -0.475967 -0.879456 -0.000015
vn 0.851440 -0.370850 -0.370819
vn -0.475967 -0.879456 -0.000015
vn -0.851440 -0.370819 -0.370850
vn 0.475937 0.000000 -0.879486
vn 0.851440 -0.370850 -0.370819
vn -0.851440 -0.370819 -0.370850
vn 0.475937 0.000000 -0.879486
vn -0.851440 -0.370819 -0.370850
vn -0.475983 0.000000 -0.879471
vn -0.851456 -0.370865 0.370804
vn -0.851486 0.370850 0.370804
vn -0.851456 0.370819 -0.370865
vn -0.851456 -0.370865 0.370804
vn -0.851456 0.370819 -0.370865
vn -0.851440 -0.370819 -0.370850
vn 0.851440 0.370865 0.370819
vn 0.851456 -0.370880 0.370819
vn 0.851440 -0.370850 -0.370819
vn 0.851440 0.370865 0.370819
vn 0.851440 -0.370850 -0.370819
vn 0.851440 0.370850 -0.370834
vt 0.752941 0.498039 0.000000
vt 0.752941 0.250980 0.000000
vt 1.000000 0.250980 0.000000
vt 0.752941 0.498039 0.000000
vt 0.752941 0.250980 0.000000
vt 1.000000 0.250980 0.000000
vt 0.752941 0.498039 0.000000
vt 0.752941 0.250980 0.000000
vt 1.000000 0.250980 0.000000
vt 0.752941 0.498039 0.000000
vt 0.752941 0.250980 0.000000
vt 1.000000 0.250980 0.000000
vt 0.752941 0.498039 0.000000
vt 0.752941 0.250980 0.000000
vt 1.000000 0.250980 0.000000
vt 0.752941 0.498039 0.000000
vt 0.752941 0.250980 0.000000
vt 1.000000 0.250980 0.000000
vt 0.752941 0.498039 0.000000
vt 0.752941 0.250980 0.000000
vt 1.000000 0.250980 0.000000
vt 0.752941 0.498039 0.000000
vt 0.752941 0.250980 0.000000
vt 1.000000 0.250980 0.000000
vt 0.752941 0.498039 0.000000
vt 0.752941 0.250980 0.000000
vt 1.000000 0.250980 0.000000
vt 0.752941 0.498039 0.000000
vt 1.000000 0.250980 0.000000
vt 1.000000 0.498039 0.000000
vt 0.752941 0.498039 0.000000
vt 0.752941 0.250980 0.000000
vt 1.000000 0.250980 0.000000
vt 0.752941 0.498039 0.000000
vt 1.000000 0.250980 0.000000
vt 1.000000 0.498039 0.000000
vt 0.752941 0.498039 0.000000
vt 0.752941 0.250980 0.000000
vt 1.000000 0.250980 0.000000
vt 0.752941 0.498039 0.000000
vt 1.000000 0.250980 0.000000
vt 1.000000 0.498039 0.000000
vt 0.752941 0.498039 0.000000
vt 0.752941 0.250980 0.000000
vt 1.000000 0.250980 0.000000
vt 0.752941 0.498039 0.000000
vt 1.000000 0.250980 0.000000
vt 1.000000 0.498039 0.000000
vt 0.752941 0.498039 0.000000
vt 0.752941 0.250980 0.000000
vt 1.000000 0.250980 0.000000
vt 0.752941 0.498039 0.000000
vt 1.000000 0.250980 0.000000
vt 1.000000 0.498039 0.000000
vt 0.752941 0.498039 0.000000
vt 0.752941 0.250980 0.000000
vt 1.000000 0.250980 0.000000
vt 0.752941 0.498039 0.000000
vt 1.000000 0.250980 0.000000
vt 1.000000 0.498039 0.000000
vt 0.752941 0.498039 0.000000
vt 0.752941 0.250980 0.000000
vt 1.000000 0.250980 0.000000
vt 0.752941 0.498039 0.000000
vt 1.000000 0.250980 0.000000
vt 1.000000 0.498039 0.000000
vt 0.752941 0.498039 0.000000
vt 0.752941 0.250980 0.000000
vt 1.000000 0.250980 0.000000
vt 0.752941 0.498039 0.000000
vt 1.000000 0.250980 0.000000
vt 1.000000 0.498039 0.000000
vt 0.752941 0.498039 0.000000
vt 0.752941 0.250980 0.000000
vt 1.000000 0.250980 0.000000
vt 0.752941 0.498039 0.000000
vt 1.000000 0.250980 0.000000
vt 1.000000 0.498039 0.000000
vt 0.752941 0.498039 0.000000
vt 0.752941 0.250980 0.000000
vt 1.000000 0.250980 0.000000
vt 0.752941 0.498039 0.000000
vt 1.000000 0.250980 0.000000
vt 1.000000 0.498039 0.000000
o WheelRearR
usemtl colour_16_0_8
f 1/1/1 2/2/2 3/3/3
f 4/4/4 5/5/5 6/6/6
f 7/7/7 8/8/8 9/9/9
f 10/10/10 11/11/11 12/12/12
f 13/13/13 14/14/14 15/15/15
f 16/16/16 17/17/17 18/18/18
f 19/19/19 20/20/20 21/21/21
f 22/22/22 23/23/23 24/24/24
f 25/25/25 26/26/26 27/27/27
f 28/28/28 29/29/29 30/30/30
f 31/31/31 32/32/32 33/33/33
f 34/34/34 35/35/35 36/36/36
f 37/37/37 38/38/38 39/39/39
f 40/40/40 41/41/41 42/42/42
f 43/43/43 44/44/44 45/45/45
f 46/46/46 47/47/47 48/48/48
f 49/49/49 50/50/50 51/51/51
f 52/52/52 53/53/53 54/54/54
f 55/55/55 56/56/56 57/57/57
f 58/58/58 59/59/59 60/60/60
f 61/61/61 62/62/62 63/63/63
f 64/64/64 65/65/65 66/66/66
f 67/67/67 68/68/68 69/69/69
f 70/70/70 71/71/71 72/72/72
usemtl texture_0
f 73/73/73 74/74/74 75/75/75
f 76/76/76 77/77/77 78/78/78
f 79/79/79 80/80/80 81/81/81
f 82/82/82 83/83/83 84/84/84
