mtllib WheelRearL.mtl
v -0.306107 0.490906 -0.000122 0.000000
v -0.306107 0.347244 -0.346954 0.000000
v -0.306122 0.000397 -0.490631 0.000000
v -0.306107 0.490906 -0.000122 0.000000
v -0.306122 0.000397 0.490372 0.000000
v -0.306107 0.347244 0.346695 0.000000
v -0.306122 -0.490082 -0.000122 0.000000
v -0.306122 -0.346405 0.346695 0.000000
v -0.306122 0.000397 0.490372 0.000000
v -0.306122 0.000397 -0.490631 0.000000
v -0.306122 -0.346420 -0.346954 0.000000
v -0.306122 -0.490082 -0.000122 0.000000
v 0.246033 0.490891 -0.000122 0.000000
v 0.246033 0.347229 0.346695 0.000000
v 0.246033 0.000381 0.490372 0.000000
v 0.246033 0.000381 0.490372 0.000000
v 0.246018 -0.346436 0.346695 0.000000
v 0.246018 -0.490097 -0.000122 0.000000
v 0.246018 -0.490097 -0.000122 0.000000
v 0.246018 -0.346436 -0.346954 0.000000
v 0.246033 0.000381 -0.490631 0.000000
v 0.246033 0.000381 -0.490631 0.000000
v 0.246033 0.347229 -0.346954 0.000000
v 0.246033 0.490891 -0.000122 0.000000
v -0.306107 0.347244 -0.346954 0.000000
v 0.246033 0.347229 -0.346954 0.000000
v 0.246033 0.000381 -0.490631 0.000000
v -0.306107 0.347244 -0.346954 0.000000
v 0.246033 0.000381 -0.490631 0.000000
v -0.306122 0.000397 -0.490631 0.000000
v -0.306107 0.490906 -0.000122 0.000000
v 0.246033 0.490891 -0.000122 0.000000
v 0.246033 0.347229 -0.346954 0.000000
v -0.306107 0.490906 -0.000122 0.000000
v 0.246033 0.347229 -0.346954 0.000000
v -0.306107 0.347244 -0.346954 0.000000
v -0.306107 0.347244 0.346695 0.000000
v 0.246033 0.347229 0.346695 0.000000
v 0.246033 0.490891 -0.000122 0.000000
v -0.306107 0.347244 0.346695 0.000000
v 0.246033 0.490891 -0.000122 0.000000
v -0.306107 0.490906 -0.000122 0.000000
v -0.306122 0.000397 0.490372 0.000000
v 0.246033 0.000381 0.490372 0.000000
v 0.246033 0.347229 0.346695 0.000000
v -0.306122 0.000397 0.490372 0.000000
v 0.246033 0.347229 0.346695 0.000000
v -0.306107 0.347244 0.346695 0.000000
v -0.306122 -0.346405 0.346695 0.000000
v 0.246018 -0.346436 0.346695 0.000000
v 0.246033 0.000381 0.490372 0.000000
v -0.306122 -0.346405 0.346695 0.000000
v 0.246033 0.000381 0.490372 0.000000
v -0.306122 0.000397 0.490372 0.000000
v -0.306122 -0.490082 -0.000122 0.000000
v 0.246018 -0.490097 -0.000122 0.000000
v 0.246018 -0.346436 0.346695 0.000000
v -0.306122 -0.490082 -0.000122 0.000000
v 0.246018 -0.346436 0.346695 0.000000
v -0.306122 -0.346405 0.346695 0.000000
v -0.306122 -0.346420 -0.346954 0.000000
v 0.246018 -0.346436 -0.346954 0.000000
v 0.246018 -0.490097 -0.000122 0.000000
v -0.306122 -0.346420 -0.346954 0.000000
v 0.246018 -0.490097 -0.000122 0.000000
v -0.306122 -0.490082 -0.000122 0.000000
v -0.306122 0.000397 -0.490631 0.000000
v 0.246033 0.000381 -0.490631 0.000000
v 0.246018 -0.346436 -0.346954 0.000000
v -0.306122 0.000397 -0.490631 0.000000
v 0.246018 -0.346436 -0.346954 0.000000
v -0.306122 -0.346420 -0.346954 0.000000
v -0.306122 -0.490082 -0.000122 0.000000
v -0.306122 0.000397 0.490372 0.000000
v -0.306107 0.490906 -0.000122 0.000000
v -0.306122 -0.490082 -0.000122 0.000000
v -0.306107 0.490906 -0.000122 0.000000
v -0.306122 0.000397 -0.490631 0.000000
v 0.246033 0.490891 -0.000122 0.000000
v 0.246033 0.000381 0.490372 0.000000
v 0.246018 -0.490097 -0.000122 0.000000
v 0.246033 0.490891 -0.000122 0.000000
v 0.246018 -0.490097 -0.000122 0.000000
v 0.246033 0.000381 -0.490631 0.000000
vn -0.851440 0.524445 0.000000
vn -0.475937 0.621887 -0.621887
vn -0.851471 0.000000 -0.524445
vn -0.851440 0.524445 0.000000
vn -0.851486 0.000000 0.524429
vn -0.475952 0.621887 0.621857
vn -0.851471 -0.524414 0.000000
vn -0.475983 -0.621887 0.621841
vn -0.851486 0.000000 0.524429
vn -0.851471 0.000000 -0.524445
vn -0.475983 -0.621903 -0.621857
vn -0.851471 -0.524414 0.000000
vn 0.851486 0.524414 0.000000
vn 0.475967 0.621872 0.621872
vn 0.851471 -0.000031 0.524414
vn 0.851471 -0.000031 0.524414
vn 0.475922 -0.621933 0.621872
vn 0.851440 -0.524475 0.000000
vn 0.851440 -0.524475 0.000000
vn 0.475952 -0.621918 -0.621857
vn 0.851471 -0.000015 -0.524429
vn 0.851471 -0.000015 -0.524429
vn 0.475967 0.621872 -0.621887
vn 0.851486 0.524414 0.000000
vn -0.475937 0.621887 -0.621887
vn 0.475967 0.621872 -0.621887
vn 0.851471 -0.000015 -0.524429
vn -0.475937 0.621887 -0.621887
vn 0.851471 -0.000015 -0.524429
vn -0.851471 0.000000 -0.524445
vn -0.851440 0.524445 0.000000
vn 0.851486 0.524414 0.000000
vn 0.475967 0.621872 -0.621887
vn -0.851440 0.524445 0.000000
vn 0.475967 0.621872 -0.621887
vn -0.475937 0.621887 -0.621887
vn -0.475952 0.621887 0.621857
vn 0.475967 0.621872 0.621872
vn 0.851486 0.524414 0.000000
vn -0.475952 0.621887 0.621857
vn 0.851486 0.524414 0.000000
vn -0.851440 0.524445 0.000000
vn -0.851486 0.000000 0.524429
vn 0.851471 -0.000031 0.524414
vn 0.475967 0.621872 0.621872
vn -0.851486 0.000000 0.524429
vn 0.475967 0.621872 0.621872
vn -0.475952 0.621887 0.621857
vn -0.475983 -0.621887 0.621841
vn 0.475922 -0.621933 0.621872
vn 0.851471 -0.000031 0.524414
vn -0.475983 -0.621887 0.621841
vn 0.851471 -0.000031 0.524414
vn -0.851486 0.000000 0.524429
vn -0.851471 -0.524414 0.000000
vn 0.851440 -0.524475 0.000000
vn 0.475922 -0.621933 0.621872
vn -0.851471 -0.524414 0.000000
vn 0.475922 -0.621933 0.621872
vn -0.475983 -0.621887 0.621841
vn -0.475983 -0.621903 -0.621857
vn 0.475952 -0.621918 -0.621857
vn 0.851440 -0.524475 0.000000
vn -0.475983 -0.621903 -0.621857
vn 0.851440 -0.524475 0.000000
vn -0.851471 -0.524414 0.000000
vn -0.851471 0.000000 -0.524445
vn 0.851471 -0.000015 -0.524429
vn 0.475952 -0.621918 -0.621857
vn -0.851471 0.000000 -0.524445
vn 0.475952 -0.621918 -0.621857
vn -0.475983 -0.621903 -0.621857
vn -0.851471 -0.524414 0.000000
vn -0.851486 0.000000 0.524429
vn -0.851440 0.524445 0.000000
vn -0.851471 -0.524414 0.000000
vn -0.851440 0.524445 0.000000
vn -0.851471 0.000000 -0.524445
vn 0.851486 0.524414 0.000000
vn 0.851471 -0.000031 0.524414
vn 0.851440 -0.524475 0.000000
vn 0.851486 0.524414 0.000000
vn 0.851440 -0.524475 0.000000
vn 0.851471 -0.000015 -0.524429
vt 0.752941 0.247059 0.000000
vt 0.752941 0.000000 0.000000
vt 1.000000 0.000000 0.000000
vt 0.752941 0.247059 0.000000
vt 0.752941 0.000000 0.000000
vt 1.000000 0.000000 0.000000
vt 0.752941 0.247059 0.000000
vt 0.752941 0.000000 0.000000
vt 1.000000 0.000000 0.000000
vt 0.752941 0.247059 0.000000
vt 0.752941 0.000000 0.000000
vt 1.000000 0.000000 0.000000
vt 0.752941 0.247059 0.000000
vt 0.752941 0.000000 0.000000
vt 1.000000 0.000000 0.000000
vt 0.752941 0.247059 0.000000
vt 0.752941 0.000000 0.000000
vt 1.000000 0.000000 0.000000
vt 0.752941 0.247059 0.000000
vt 0.752941 0.000000 0.000000
vt 1.000000 0.000000 0.000000
vt 0.752941 0.247059 0.000000
vt 0.752941 0.000000 0.000000
vt 1.000000 0.000000 0.000000
vt 0.752941 0.247059 0.000000
vt 0.752941 0.000000 0.000000
vt 1.000000 0.000000 0.000000
vt 0.752941 0.247059 0.000000
vt 1.000000 0.000000 0.000000
vt 1.000000 0.247059 0.000000
vt 0.752941 0.247059 0.000000
vt 0.752941 0.000000 0.000000
vt 1.000000 0.000000 0.000000
vt 0.752941 0.247059 0.000000
vt 1.000000 0.000000 0.000000
vt 1.000000 0.247059 0.000000
vt 0.752941 0.247059 0.000000
vt 0.752941 0.000000 0.000000
vt 1.000000 0.000000 0.000000
vt 0.752941 0.247059 0.000000
vt 1.000000 0.000000 0.000000
vt 1.000000 0.247059 0.000000
vt 0.752941 0.247059 0.000000
vt 0.752941 0.000000 0.000000
vt 1.000000 0.000000 0.000000
vt 0.752941 0.247059 0.000000
vt 1.000000 0.000000 0.000000
vt 1.000000 0.247059 0.000000
vt 0.752941 0.247059 0.000000
vt 0.752941 0.000000 0.000000
vt 1.000000 0.000000 0.000000
vt 0.752941 0.247059 0.000000
vt 1.000000 0.000000 0.000000
vt 1.000000 0.247059 0.000000
vt 0.752941 0.247059 0.000000
vt 0.752941 0.000000 0.000000
vt 1.000000 0.000000 0.000000
vt 0.752941 0.247059 0.000000
vt 1.000000 0.000000 0.000000
vt 1.000000 0.247059 0.000000
vt 0.752941 0.247059 0.000000
vt 0.752941 0.000000 0.000000
vt 1.000000 0.000000 0.000000
vt 0.752941 0.247059 0.000000
vt 1.000000 0.000000 0.000000
vt 1.000000 0.247059 0.000000
vt 0.752941 0.247059 0.000000
vt 0.752941 0.000000 0.000000
vt 1.000000 0.000000 0.000000
vt 0.752941 0.247059 0.000000
vt 1.000000 0.000000 0.000000
vt 1.000000 0.247059 0.000000
vt 0.501961 0.749020 0.000000
vt 0.501961 0.501961 0.000000
vt 0.749020 0.501961 0.000000
vt 0.501961 0.749020 0.000000
vt 0.749020 0.501961 0.000000
vt 0.749020 0.749020 0.000000
vt 0.752941 0.247059 0.000000
vt 0.752941 0.000000 0.000000
vt 1.000000 0.000000 0.000000
vt 0.752941 0.247059 0.000000
vt 1.000000 0.000000 0.000000
vt 1.000000 0.247059 0.000000
o WheelRearL
usemtl colour_0_0_0
f 1/1/1 2/2/2 3/3/3
f 4/4/4 5/5/5 6/6/6
f 7/7/7 8/8/8 9/9/9
f 10/10/10 11/11/11 12/12/12
f 13/13/13 14/14/14 15/15/15
f 16/16/16 17/17/17 18/18/18
f 19/19/19 20/20/20 21/21/21
f 22/22/22 23/23/23 24/24/24
f 25/25/25 26/26/26 27/27/27
f 28/28/28 29/29/29 30/30/30
f 31/31/31 32/32/32 33/33/33
f 34/34/34 35/35/35 36/36/36
f 37/37/37 38/38/38 39/39/39
f 40/40/40 41/41/41 42/42/42
f 43/43/43 44/44/44 45/45/45
f 46/46/46 47/47/47 48/48/48
f 49/49/49 50/50/50 51/51/51
f 52/52/52 53/53/53 54/54/54
f 55/55/55 56/56/56 57/57/57
f 58/58/58 59/59/59 60/60/60
f 61/61/61 62/62/62 63/63/63
f 64/64/64 65/65/65 66/66/66
f 67/67/67 68/68/68 69/69/69
f 70/70/70 71/71/71 72/72/72
usemtl texture_0
f 73/73/73 74/74/74 75/75/75
f 76/76/76 77/77/77 78/78/78
f 79/79/79 80/80/80 81/81/81
f 82/82/82 83/83/83 84/84/84
