mtllib WheelRearL.mtl
v 0.419449 -0.416870 -0.420654 0.000000
v 0.419449 -0.416870 0.413086 0.000000
v 0.419449 -0.589539 -0.003784 0.000000
v 0.419464 0.416840 0.413086 0.000000
v 0.419464 0.000000 0.585739 0.000000
v 0.419449 -0.416870 0.413086 0.000000
v 0.419464 0.416840 -0.420654 0.000000
v 0.419464 0.589508 -0.003784 0.000000
v 0.419464 0.416840 0.413086 0.000000
v 0.419449 -0.416870 -0.420654 0.000000
v 0.419464 0.000000 -0.593323 0.000000
v 0.419464 0.416840 -0.420654 0.000000
v -0.419479 -0.416855 0.413086 0.000000
v 0.419449 -0.416870 0.413086 0.000000
v 0.419464 0.000000 0.585739 0.000000
v -0.419479 -0.416855 0.413086 0.000000
v 0.419464 0.000000 0.585739 0.000000
v -0.419479 0.000000 0.585739 0.000000
v -0.419479 -0.589523 -0.003784 0.000000
v 0.419449 -0.589539 -0.003784 0.000000
v 0.419449 -0.416870 0.413086 0.000000
v -0.419479 -0.589523 -0.003784 0.000000
v 0.419449 -0.416870 0.413086 0.000000
v -0.419479 -0.416855 0.413086 0.000000
v -0.419479 -0.416855 -0.420654 0.000000
v 0.419449 -0.416870 -0.420654 0.000000
v 0.419449 -0.589539 -0.003784 0.000000
v -0.419479 -0.416855 -0.420654 0.000000
v 0.419449 -0.589539 -0.003784 0.000000
v -0.419479 -0.589523 -0.003784 0.000000
v -0.419479 0.000000 -0.593323 0.000000
v 0.419464 0.000000 -0.593323 0.000000
v 0.419449 -0.416870 -0.420654 0.000000
v -0.419479 0.000000 -0.593323 0.000000
v 0.419449 -0.416870 -0.420654 0.000000
v -0.419479 -0.416855 -0.420654 0.000000
v -0.419464 0.416855 -0.420654 0.000000
v 0.419464 0.416840 -0.420654 0.000000
v 0.419464 0.000000 -0.593323 0.000000
v -0.419464 0.416855 -0.420654 0.000000
v 0.419464 0.000000 -0.593323 0.000000
v -0.419479 0.000000 -0.593323 0.000000
v -0.419464 0.589523 -0.003784 0.000000
v 0.419464 0.589508 -0.003784 0.000000
v 0.419464 0.416840 -0.420654 0.000000
v -0.419464 0.589523 -0.003784 0.000000
v 0.419464 0.416840 -0.420654 0.000000
v -0.419464 0.416855 -0.420654 0.000000
v -0.419464 0.416855 0.413086 0.000000
v 0.419464 0.416840 0.413086 0.000000
v 0.419464 0.589508 -0.003784 0.000000
v -0.419464 0.416855 0.413086 0.000000
v 0.419464 0.589508 -0.003784 0.000000
v -0.419464 0.589523 -0.003784 0.000000
v -0.419479 0.000000 0.585739 0.000000
v 0.419464 0.000000 0.585739 0.000000
v 0.419464 0.416840 0.413086 0.000000
v -0.419479 0.000000 0.585739 0.000000
v 0.419464 0.416840 0.413086 0.000000
v -0.419464 0.416855 0.413086 0.000000
v 0.419449 -0.416870 0.413086 0.000000
v 0.419449 -0.416870 -0.420654 0.000000
v 0.419464 0.416840 -0.420654 0.000000
v 0.419449 -0.416870 0.413086 0.000000
v 0.419464 0.416840 -0.420654 0.000000
v 0.419464 0.416840 0.413086 0.000000
vn 0.851456 -0.370850 -0.370819
vn 0.851486 -0.370865 0.370804
vn 0.475937 -0.879486 0.000000
vn 0.851502 0.370804 0.370804
vn 0.475967 -0.000015 0.879471
vn 0.851486 -0.370865 0.370804
vn 0.851471 0.370819 -0.370819
vn 0.475983 0.879456 0.000000
vn 0.851502 0.370804 0.370804
vn 0.851456 -0.370850 -0.370819
vn 0.475967 0.000000 -0.879456
vn 0.851471 0.370819 -0.370819
vn -0.000015 -0.707123 0.707123
vn 0.851486 -0.370865 0.370804
vn 0.475967 -0.000015 0.879471
vn -0.000015 -0.707123 0.707123
vn 0.475967 -0.000015 0.879471
vn 0.000000 0.000000 1.000031
vn -0.000031 -1.000015 0.000000
vn 0.475937 -0.879486 0.000000
vn 0.851486 -0.370865 0.370804
vn -0.000031 -1.000015 0.000000
vn 0.851486 -0.370865 0.370804
vn -0.000015 -0.707123 0.707123
vn -0.000015 -0.707123 -0.707108
vn 0.851456 -0.370850 -0.370819
vn 0.475937 -0.879486 0.000000
vn -0.000015 -0.707123 -0.707108
vn 0.475937 -0.879486 0.000000
vn -0.000031 -1.000015 0.000000
vn 0.000000 0.000000 -1.000015
vn 0.475967 0.000000 -0.879456
vn 0.851456 -0.370850 -0.370819
vn 0.000000 0.000000 -1.000015
vn 0.851456 -0.370850 -0.370819
vn -0.000015 -0.707123 -0.707108
vn 0.000000 0.707108 -0.707108
vn 0.851471 0.370819 -0.370819
vn 0.475967 0.000000 -0.879456
vn 0.000000 0.707108 -0.707108
vn 0.475967 0.000000 -0.879456
vn 0.000000 0.000000 -1.000015
vn 0.000015 1.000031 0.000000
vn 0.475983 0.879456 0.000000
vn 0.851471 0.370819 -0.370819
vn 0.000015 1.000031 0.000000
vn 0.851471 0.370819 -0.370819
vn 0.000000 0.707108 -0.707108
vn 0.000000 0.707092 0.707123
vn 0.851502 0.370804 0.370804
vn 0.475983 0.879456 0.000000
vn 0.000000 0.707092 0.707123
vn 0.475983 0.879456 0.000000
vn 0.000015 1.000031 0.000000
vn 0.000000 0.000000 1.000031
vn 0.475967 -0.000015 0.879471
vn 0.851502 0.370804 0.370804
vn 0.000000 0.000000 1.000031
vn 0.851502 0.370804 0.370804
vn 0.000000 0.707092 0.707123
vn 0.851486 -0.370865 0.370804
vn 0.851456 -0.370850 -0.370819
vn 0.851471 0.370819 -0.370819
vn 0.851486 -0.370865 0.370804
vn 0.851471 0.370819 -0.370819
vn 0.851502 0.370804 0.370804
vt 0.501961 0.498039 0.000000
vt 0.501961 0.000000 0.000000
vt 1.000000 0.000000 0.000000
vt 0.501961 0.498039 0.000000
vt 0.501961 0.000000 0.000000
vt 1.000000 0.000000 0.000000
vt 0.501961 0.498039 0.000000
vt 0.501961 0.000000 0.000000
vt 1.000000 0.000000 0.000000
vt 0.501961 0.498039 0.000000
vt 0.501961 0.000000 0.000000
vt 1.000000 0.000000 0.000000
vt 0.501961 0.498039 0.000000
vt 0.501961 0.000000 0.000000
vt 1.000000 0.000000 0.000000
vt 0.501961 0.498039 0.000000
vt 1.000000 0.000000 0.000000
vt 1.000000 0.498039 0.000000
vt 0.501961 0.498039 0.000000
vt 0.501961 0.000000 0.000000
vt 1.000000 0.000000 0.000000
vt 0.501961 0.498039 0.000000
vt 1.000000 0.000000 0.000000
vt 1.000000 0.498039 0.000000
vt 0.501961 0.498039 0.000000
vt 0.501961 0.000000 0.000000
vt 1.000000 0.000000 0.000000
vt 0.501961 0.498039 0.000000
vt 1.000000 0.000000 0.000000
vt 1.000000 0.498039 0.000000
vt 0.501961 0.498039 0.000000
vt 0.501961 0.000000 0.000000
vt 1.000000 0.000000 0.000000
vt 0.501961 0.498039 0.000000
vt 1.000000 0.000000 0.000000
vt 1.000000 0.498039 0.000000
vt 0.501961 0.498039 0.000000
vt 0.501961 0.000000 0.000000
vt 1.000000 0.000000 0.000000
vt 0.501961 0.498039 0.000000
vt 1.000000 0.000000 0.000000
vt 1.000000 0.498039 0.000000
vt 0.501961 0.498039 0.000000
vt 0.501961 0.000000 0.000000
vt 1.000000 0.000000 0.000000
vt 0.501961 0.498039 0.000000
vt 1.000000 0.000000 0.000000
vt 1.000000 0.498039 0.000000
vt 0.501961 0.498039 0.000000
vt 0.501961 0.000000 0.000000
vt 1.000000 0.000000 0.000000
vt 0.501961 0.498039 0.000000
vt 1.000000 0.000000 0.000000
vt 1.000000 0.498039 0.000000
vt 0.501961 0.498039 0.000000
vt 0.501961 0.000000 0.000000
vt 1.000000 0.000000 0.000000
vt 0.501961 0.498039 0.000000
vt 1.000000 0.000000 0.000000
vt 1.000000 0.498039 0.000000
vt 0.501961 0.498039 0.000000
vt 0.501961 0.000000 0.000000
vt 1.000000 0.000000 0.000000
vt 0.501961 0.498039 0.000000
vt 1.000000 0.000000 0.000000
vt 1.000000 0.498039 0.000000
o WheelRearL
usemtl colour_0_0_0
f 1/1/1 2/2/2 3/3/3
f 4/4/4 5/5/5 6/6/6
f 7/7/7 8/8/8 9/9/9
f 10/10/10 11/11/11 12/12/12
f 13/13/13 14/14/14 15/15/15
f 16/16/16 17/17/17 18/18/18
f 19/19/19 20/20/20 21/21/21
f 22/22/22 23/23/23 24/24/24
f 25/25/25 26/26/26 27/27/27
f 28/28/28 29/29/29 30/30/30
f 31/31/31 32/32/32 33/33/33
f 34/34/34 35/35/35 36/36/36
f 37/37/37 38/38/38 39/39/39
f 40/40/40 41/41/41 42/42/42
f 43/43/43 44/44/44 45/45/45
f 46/46/46 47/47/47 48/48/48
f 49/49/49 50/50/50 51/51/51
f 52/52/52 53/53/53 54/54/54
f 55/55/55 56/56/56 57/57/57
f 58/58/58 59/59/59 60/60/60
usemtl texture_1
f 61/61/61 62/62/62 63/63/63
f 64/64/64 65/65/65 66/66/66
